Coordinates
version=1
nRows=17
nColumns=34
inDegrees=yes

Units are S.I. units (second, meters, Newtons, ...)
If the header above contains a line with 'inDegrees', this indicates whether rotational values are in degrees (yes) or radians (no).

endheader
time	pelvis_tilt	pelvis_list	pelvis_rotation	pelvis_tx	pelvis_ty	pelvis_tz	hip_flexion_r	hip_adduction_r	hip_rotation_r	knee_angle_r	ankle_angle_r	subtalar_angle_r	mtp_angle_r	hip_flexion_l	hip_adduction_l	hip_rotation_l	knee_angle_l	ankle_angle_l	subtalar_angle_l	mtp_angle_l	lumbar_extension	lumbar_bending	lumbar_rotation	arm_flex_r	arm_add_r	arm_rot_r	elbow_flex_r	pro_sup_r	arm_flex_l	arm_add_l	arm_rot_l	elbow_flex_l	pro_sup_l
      0.00000000	      3.82843158	     -6.41930935	    154.61163546	      0.42383200	      0.84442394	     -0.08996576	     25.72583505	     -6.16464622	     -4.25148263	     93.59474589	      0.00000000	      0.00000000	      0.00000000	     24.29953702	     -7.96495811	     -1.60357033	     97.95742757	      0.00000000	      0.00000000	      0.00000000	      2.93565696	      0.12538821	      2.28019584	      0.00000000	      0.00000000	      0.00000000	      0.00000000	      0.00000000	      0.00000000	      0.00000000	      0.00000000	      0.00000000	      0.00000000
      0.01666670	      5.43199283	     -4.71852651	    154.61798636	      0.42412364	      0.84820944	     -0.08922923	     29.23076505	     -4.25807216	     -4.19990493	     99.45251499	      0.00000000	      0.00000000	      0.00000000	     27.70341317	     -9.49942147	     -1.17282127	    101.64668221	      0.00000000	      0.00000000	      0.00000000	      3.73711624	      0.31251895	      2.33590434	      0.00000000	      0.00000000	      0.00000000	      0.00000000	      0.00000000	      0.00000000	      0.00000000	      0.00000000	      0.00000000	      0.00000000
      0.03333330	      5.89417437	     -4.62634738	    154.32038901	      0.42507343	      0.84932801	     -0.09004394	     29.80246533	     -2.94667339	     -3.77925656	     99.05875061	      0.00000000	      0.00000000	      0.00000000	     28.55083083	     -9.34107171	     -1.40259752	    101.48517157	      0.00000000	      0.00000000	      0.00000000	      4.48357219	     -1.03710791	      2.67032736	      0.00000000	      0.00000000	      0.00000000	      0.00000000	      0.00000000	      0.00000000	      0.00000000	      0.00000000	      0.00000000	      0.00000000
      0.05000000	      6.63996314	     -5.00959825	    154.45634424	      0.42494646	      0.84938721	     -0.08979889	     31.09779107	     -2.66234887	     -4.16365585	     98.05423082	      0.00000000	      0.00000000	      0.00000000	     29.17381823	     -8.47684284	     -1.10862935	    100.35540944	      0.00000000	      0.00000000	      0.00000000	      5.44574350	     -1.65734431	      2.07179761	      0.00000000	      0.00000000	      0.00000000	      0.00000000	      0.00000000	      0.00000000	      0.00000000	      0.00000000	      0.00000000	      0.00000000
      0.06666670	      7.60106487	     -5.00131506	    154.57778766	      0.42490512	      0.84969677	     -0.08949788	     31.81234490	     -1.88945752	     -4.75225270	     97.03124429	      0.00000000	      0.00000000	      0.00000000	     29.94886462	     -8.41748153	     -0.84067295	     99.78001701	      0.00000000	      0.00000000	      0.00000000	      6.37347289	     -1.24721883	      2.07862675	      0.00000000	      0.00000000	      0.00000000	      0.00000000	      0.00000000	      0.00000000	      0.00000000	      0.00000000	      0.00000000	      0.00000000
      0.08333330	      8.20722976	     -5.30162228	    154.76858663	      0.42493082	      0.84973743	     -0.08911636	     32.44915896	     -1.83339232	     -5.09466589	     96.94243174	      0.00000000	      0.00000000	      0.00000000	     30.74589303	     -7.97832515	     -0.66578244	     99.42639759	      0.00000000	      0.00000000	      0.00000000	      6.99541301	     -1.26892936	      2.05701278	      0.00000000	      0.00000000	      0.00000000	      0.00000000	      0.00000000	      0.00000000	      0.00000000	      0.00000000	      0.00000000	      0.00000000
      0.10000000	      8.55751496	     -5.35365579	    154.93897435	      0.42477822	      0.85005850	     -0.08894208	     32.51602313	     -1.70492409	     -5.39747864	     96.87986041	      0.00000000	      0.00000000	      0.00000000	     31.14907166	     -7.90921629	     -0.51795689	     99.29947689	      0.00000000	      0.00000000	      0.00000000	      7.36481697	     -1.06318171	      2.18671764	      0.00000000	      0.00000000	      0.00000000	      0.00000000	      0.00000000	      0.00000000	      0.00000000	      0.00000000	      0.00000000	      0.00000000
      0.11666670	      9.02496994	     -5.51434760	    155.07383746	      0.42475231	      0.84978996	     -0.08884278	     32.99913975	     -1.68277367	     -5.57960654	     97.05668966	      0.00000000	      0.00000000	      0.00000000	     31.80243266	     -7.80650196	     -0.38285107	     99.29496056	      0.00000000	      0.00000000	      0.00000000	      7.85586018	     -1.02289802	      2.27597991	      0.00000000	      0.00000000	      0.00000000	      0.00000000	      0.00000000	      0.00000000	      0.00000000	      0.00000000	      0.00000000	      0.00000000
      0.13333330	      9.05676145	     -5.52084212	    155.10306162	      0.42478010	      0.85003505	     -0.08893362	     32.99318811	     -1.66350452	     -5.61249925	     97.12624936	      0.00000000	      0.00000000	      0.00000000	     31.83981384	     -7.79771825	     -0.39599501	     99.24437472	      0.00000000	      0.00000000	      0.00000000	      7.84836305	     -1.01228017	      2.28235082	      0.00000000	      0.00000000	      0.00000000	      0.00000000	      0.00000000	      0.00000000	      0.00000000	      0.00000000	      0.00000000	      0.00000000
      0.15000000	      9.11259347	     -5.51139416	    155.11773207	      0.42469531	      0.85005616	     -0.08907711	     33.11718648	     -1.69124646	     -5.67973128	     97.25359977	      0.00000000	      0.00000000	      0.00000000	     31.86427489	     -7.79937555	     -0.33303205	     99.19461340	      0.00000000	      0.00000000	      0.00000000	      7.83248186	     -0.99518336	      2.30086120	      0.00000000	      0.00000000	      0.00000000	      0.00000000	      0.00000000	      0.00000000	      0.00000000	      0.00000000	      0.00000000	      0.00000000
      0.16666670	      9.11537652	     -5.49695118	    155.15330936	      0.42454460	      0.85002089	     -0.08924283	     33.17449846	     -1.70669777	     -5.67708812	     97.25938025	      0.00000000	      0.00000000	      0.00000000	     31.85909090	     -7.80406223	     -0.32170026	     99.20020604	      0.00000000	      0.00000000	      0.00000000	      7.83317860	     -0.99048990	      2.30653702	      0.00000000	      0.00000000	      0.00000000	      0.00000000	      0.00000000	      0.00000000	      0.00000000	      0.00000000	      0.00000000	      0.00000000
      0.18333330	      9.71388591	     -5.70322501	    155.35727371	      0.42431239	      0.84878589	     -0.08914723	     33.96460918	     -1.75462163	     -5.82320958	     97.34486037	      0.00000000	      0.00000000	      0.00000000	     32.72885935	     -7.74363437	     -0.07367922	     99.34283440	      0.00000000	      0.00000000	      0.00000000	      8.63201461	     -0.93456816	      2.51000323	      0.00000000	      0.00000000	      0.00000000	      0.00000000	      0.00000000	      0.00000000	      0.00000000	      0.00000000	      0.00000000	      0.00000000
      0.20000000	      9.69197617	     -5.69430029	    155.35980358	      0.42418981	      0.84861505	     -0.08934431	     33.99107879	     -1.76376904	     -5.81226023	     97.33595998	      0.00000000	      0.00000000	      0.00000000	     32.73482095	     -7.75355566	     -0.06542430	     99.34189605	      0.00000000	      0.00000000	      0.00000000	      8.62963549	     -0.93184337	      2.50961038	      0.00000000	      0.00000000	      0.00000000	      0.00000000	      0.00000000	      0.00000000	      0.00000000	      0.00000000	      0.00000000	      0.00000000
      0.21666670	      9.68226320	     -5.68925214	    155.35928881	      0.42391755	      0.84837402	     -0.08954665	     33.99566971	     -1.76394550	     -5.81060790	     97.33472696	      0.00000000	      0.00000000	      0.00000000	     32.74133460	     -7.75308116	     -0.06486052	     99.34113996	      0.00000000	      0.00000000	      0.00000000	      8.62881615	     -0.93118325	      2.50971177	      0.00000000	      0.00000000	      0.00000000	      0.00000000	      0.00000000	      0.00000000	      0.00000000	      0.00000000	      0.00000000	      0.00000000
      0.23333330	      9.69555624	     -5.69923694	    155.38489910	      0.42399882	      0.84795268	     -0.08955064	     34.08441203	     -1.70883319	     -5.71401541	     97.40157496	      0.00000000	      0.00000000	      0.00000000	     32.91664857	     -7.73501406	     -0.01171494	     99.47461574	      0.00000000	      0.00000000	      0.00000000	      8.54614021	     -0.88835756	      2.52812790	      0.00000000	      0.00000000	      0.00000000	      0.00000000	      0.00000000	      0.00000000	      0.00000000	      0.00000000	      0.00000000	      0.00000000
      0.25000000	      9.68346755	     -5.71410498	    155.36061546	      0.42380939	      0.84773278	     -0.08983985	     34.07600923	     -1.69269826	     -5.73287108	     97.43398170	      0.00000000	      0.00000000	      0.00000000	     32.95788214	     -7.73568395	     -0.00524216	     99.48640908	      0.00000000	      0.00000000	      0.00000000	      8.54998407	     -0.88356493	      2.53217582	      0.00000000	      0.00000000	      0.00000000	      0.00000000	      0.00000000	      0.00000000	      0.00000000	      0.00000000	      0.00000000	      0.00000000
      0.26666670	     10.06689878	     -5.75713578	    155.44830391	      0.42375650	      0.84657290	     -0.08980937	     34.57348327	     -1.55649109	     -5.84181165	     97.68332956	      0.00000000	      0.00000000	      0.00000000	     33.56388695	     -7.84675153	      0.18132069	     99.79914898	      0.00000000	      0.00000000	      0.00000000	      9.01608127	     -0.71965925	      2.75284913	      0.00000000	      0.00000000	      0.00000000	      0.00000000	      0.00000000	      0.00000000	      0.00000000	      0.00000000	      0.00000000	      0.00000000
